<svg width="200" height="33" viewBox="0 0 200 33" fill="none" xmlns="http://www.w3.org/2000/svg">
    <path fill-rule="evenodd" clip-rule="evenodd"
          d="M16.0965 19.0353V24.1812C16.1117 24.4204 16.0819 24.6603 16.0085 24.8894C15.9459 25.0248 15.7769 25.0914 15.5222 25.0914C15.1223 25.0914 14.9224 24.788 14.9224 24.1812V21.7259H2.99421V22.938C2.99421 26.5299 3.98687 29.1044 5.97221 30.6613C7.95754 32.2183 11.1385 32.9975 15.5152 32.999C16.945 33.0103 18.3739 32.9295 19.7923 32.757C20.9851 32.6048 22.1525 32.3064 23.2659 31.869C24.2636 31.4908 25.1659 30.9134 25.9127 30.1751C26.6473 29.4003 27.2 28.4836 27.5337 27.4868C27.9504 26.2337 28.1491 24.9234 28.1219 23.6085V14.5066C28.125 11.8156 27.0168 9.23297 25.0393 7.32314C23.0619 5.41331 20.3762 4.33166 17.5693 4.31465C17.2942 3.96766 16.9948 3.63908 16.6731 3.3312C16.5897 3.24906 16.5017 3.16914 16.4137 3.09144C11.1849 -1.49059 0 0.37641 0 0.37641V13.2101C0 13.9753 0.157248 14.7329 0.462761 15.4398C0.768274 16.1467 1.21607 16.789 1.78056 17.3299C2.34505 17.8709 3.01518 18.2999 3.75267 18.5925C4.49017 18.8851 5.28057 19.0356 6.07873 19.0353H16.0965ZM25.5538 16.4424H25.3639C25.1834 16.4424 25.0046 16.4765 24.8379 16.5428C24.6711 16.6091 24.5196 16.7063 24.3921 16.8287C24.2646 16.9512 24.1635 17.0966 24.0946 17.2566C24.0257 17.4165 23.9904 17.588 23.9907 17.761V17.9453H23.6202V17.761C23.6202 17.5867 23.5842 17.4142 23.5142 17.2533C23.4442 17.0924 23.3416 16.9465 23.2124 16.8239C23.0832 16.7012 22.9299 16.6044 22.7614 16.5389C22.5929 16.4734 22.4126 16.4406 22.2308 16.4424H22.0455V16.0783H22.2308C22.4124 16.0801 22.5926 16.0473 22.7609 15.982C22.9292 15.9166 23.0824 15.82 23.2116 15.6976C23.3408 15.5752 23.4434 15.4295 23.5135 15.2689C23.5836 15.1083 23.6199 14.936 23.6202 14.7619V14.5776H24V14.7619C24 15.111 24.1447 15.4458 24.4022 15.6927C24.6597 15.9396 25.009 16.0783 25.3732 16.0783H25.5631L25.5538 16.4424ZM51.027 19.595C51.0107 23.5066 48.5144 24.8763 44.404 24.8763C39.9 24.8763 37.8112 23.1914 37.8112 19.4152V17.8612H43.4453V19.6971C43.4453 20.5696 43.8066 20.8848 44.404 20.8848C45.0015 20.8848 45.3604 20.5696 45.3604 19.6971V14.2382H40.1663V10.3732H51.027V19.595ZM59.2288 24.8763C63.3577 24.8763 65.868 23.1914 65.868 19.5195V10.3732H60.2176V19.6705C60.2176 20.4985 59.8402 20.8582 59.245 20.8582C58.6499 20.8582 58.2724 20.4985 58.2724 19.6705V10.3732H52.6545V19.5661C52.6545 23.1914 54.829 24.8763 59.2288 24.8763ZM75.103 14.5712V14.4957C75.103 13.8785 74.7094 13.5167 74.0193 13.5167C73.3292 13.5167 72.9679 13.8941 72.9679 14.3447V14.3603C72.9679 14.8864 73.2806 15.0662 74.0517 15.2172L76.4369 15.5413C79.3245 15.932 81.0683 16.8733 81.0683 19.7393V19.8436C81.0683 22.8983 78.5882 24.8541 74.1212 24.8541C69.8672 24.8541 67.262 23.2002 67.262 20.4452V20.0479H73.0374V20.1811C73.0374 20.7849 73.4149 21.2644 74.1212 21.2644C74.2581 21.2702 74.3948 21.2491 74.5229 21.2024C74.651 21.1558 74.7679 21.0845 74.8663 20.9931C74.9647 20.9017 75.0426 20.7919 75.0953 20.6706C75.1479 20.5493 75.1742 20.419 75.1725 20.2876V20.2277C75.1725 19.6549 74.7325 19.3708 74.1212 19.2353L71.9699 18.949C68.4963 18.5871 67.2157 17.3239 67.2157 14.8109V14.7199C67.2157 11.9072 69.4596 10.1157 74.0262 10.1157C78.3728 10.1157 80.758 11.7407 80.758 14.2382V14.5712H75.103ZM90.5928 14.8265H93.9992L93.9899 10.3732H81.5129V14.842H84.9425V24.5944H90.5928V14.8265ZM107.362 22.6452H104.475L104.162 24.601H98.2918L101.636 10.3932H110.375L113.617 24.601H107.661L107.362 22.6452ZM106.86 19.4263L106.374 16.2362L106.059 14.1938H105.79L105.51 16.2406L104.993 19.4307L106.86 19.4263ZM121.992 14.4957V14.5712H127.649V14.2382C127.649 11.7407 125.264 10.1157 120.915 10.1157C116.348 10.1157 114.104 11.9072 114.104 14.7199V14.8109C114.104 17.3239 115.385 18.5871 118.858 18.949L121.01 19.2353C121.621 19.3708 122.061 19.6549 122.061 20.2277V20.2876C122.063 20.4191 122.037 20.5496 121.984 20.671C121.932 20.7925 121.854 20.9023 121.756 20.9938C121.657 21.0853 121.54 21.1565 121.412 21.2031C121.284 21.2496 121.147 21.2705 121.01 21.2644C120.303 21.2644 119.926 20.7849 119.926 20.1833V20.0479H114.151V20.4475C114.151 23.2002 116.756 24.8541 121.01 24.8541C125.477 24.8541 127.957 22.8983 127.957 19.8436V19.7393C127.957 16.8733 126.213 15.932 123.325 15.5413L120.94 15.2172C120.171 15.0662 119.856 14.8864 119.856 14.3603V14.3447C119.856 13.8941 120.215 13.5167 120.908 13.5167C121.6 13.5167 121.992 13.8785 121.992 14.4957ZM137.497 24.5899L135.316 18.6781H135.033V24.5899H129.432V10.3821H135.033V16.2251H135.316L137.481 10.3732H143.46L140.563 17.264L143.703 24.5899H137.497ZM160.586 10.3732L159.455 17.0687L159.168 19.4241H158.918L158.603 17.0775L157.489 10.3821H149.595V24.5899H155.088V20.3476L154.856 15.9698H155.076L156.646 24.5899H161.331L163.026 15.9698H163.237L162.987 20.3476V24.5811H168.459V10.3732H160.586ZM178.351 22.6452H175.464L175.151 24.601H169.278L172.62 10.3932H181.362L184.604 24.601H178.65L178.351 22.6452ZM177.846 19.4307L177.36 16.2406L177.048 14.1938H176.781L176.499 16.2406L175.994 19.4307H177.846ZM190.702 24.5899L191.895 21.3266L192.136 20.392H192.435L192.717 21.3199L193.91 24.5833H200L197.066 17.3173L199.798 10.3732H193.724L192.736 13.1415L192.504 14.0428H192.221L191.99 13.1415L191.031 10.3732H184.878L187.657 17.2329L184.612 24.5899H190.702Z"
          fill="#00283C"/>
</svg>
